<mxfile host="app.diagrams.net" modified="2021-09-03T09:12:25.730Z" agent="5.0 (Macintosh)" etag="uBcTeNPPiUvO3FqwF7L8" version="15.0.6" type="github">
  <diagram id="hUPv-rZTNqu7wUvO2y3x" name="Page-1">
    <mxGraphModel dx="1186" dy="651" grid="1" gridSize="10" guides="1" tooltips="1" connect="1" arrows="1" fold="1" page="1" pageScale="1" pageWidth="827" pageHeight="1169" math="0" shadow="0">
      <root>
        <mxCell id="0" />
        <mxCell id="1" parent="0" />
        <mxCell id="mOBDqDTa86BtB7iNb8-j-1" value="" style="shape=table;startSize=0;container=1;collapsible=0;childLayout=tableLayout;" vertex="1" parent="1">
          <mxGeometry x="90" y="140" width="950" height="370" as="geometry" />
        </mxCell>
        <mxCell id="mOBDqDTa86BtB7iNb8-j-2" value="" style="shape=partialRectangle;collapsible=0;dropTarget=0;pointerEvents=0;fillColor=none;top=0;left=0;bottom=0;right=0;points=[[0,0.5],[1,0.5]];portConstraint=eastwest;" vertex="1" parent="mOBDqDTa86BtB7iNb8-j-1">
          <mxGeometry width="950" height="53" as="geometry" />
        </mxCell>
        <mxCell id="mOBDqDTa86BtB7iNb8-j-3" value="Item number" style="shape=partialRectangle;html=1;whiteSpace=wrap;connectable=0;overflow=hidden;fillColor=none;top=0;left=0;bottom=0;right=0;" vertex="1" parent="mOBDqDTa86BtB7iNb8-j-2">
          <mxGeometry width="113" height="53" as="geometry" />
        </mxCell>
        <mxCell id="mOBDqDTa86BtB7iNb8-j-4" value="Part number" style="shape=partialRectangle;html=1;whiteSpace=wrap;connectable=0;overflow=hidden;fillColor=none;top=0;left=0;bottom=0;right=0;" vertex="1" parent="mOBDqDTa86BtB7iNb8-j-2">
          <mxGeometry x="113" width="114" height="53" as="geometry" />
        </mxCell>
        <mxCell id="mOBDqDTa86BtB7iNb8-j-5" value="Item name" style="shape=partialRectangle;html=1;whiteSpace=wrap;connectable=0;overflow=hidden;fillColor=none;top=0;left=0;bottom=0;right=0;" vertex="1" parent="mOBDqDTa86BtB7iNb8-j-2">
          <mxGeometry x="227" width="113" height="53" as="geometry" />
        </mxCell>
        <mxCell id="mOBDqDTa86BtB7iNb8-j-6" value="End of life for Recycling" style="shape=partialRectangle;html=1;whiteSpace=wrap;connectable=0;overflow=hidden;fillColor=none;top=0;left=0;bottom=0;right=0;" vertex="1" parent="mOBDqDTa86BtB7iNb8-j-2">
          <mxGeometry x="340" width="221" height="53" as="geometry" />
        </mxCell>
        <mxCell id="mOBDqDTa86BtB7iNb8-j-7" value="End of life for disposing " style="shape=partialRectangle;html=1;whiteSpace=wrap;connectable=0;overflow=hidden;fillColor=none;top=0;left=0;bottom=0;right=0;" vertex="1" parent="mOBDqDTa86BtB7iNb8-j-2">
          <mxGeometry x="561" width="179" height="53" as="geometry" />
        </mxCell>
        <mxCell id="mOBDqDTa86BtB7iNb8-j-8" value="End of life for onditionally recycling" style="shape=partialRectangle;html=1;whiteSpace=wrap;connectable=0;overflow=hidden;fillColor=none;top=0;left=0;bottom=0;right=0;" vertex="1" parent="mOBDqDTa86BtB7iNb8-j-2">
          <mxGeometry x="740" width="210" height="53" as="geometry" />
        </mxCell>
        <mxCell id="mOBDqDTa86BtB7iNb8-j-9" style="shape=partialRectangle;collapsible=0;dropTarget=0;pointerEvents=0;fillColor=none;top=0;left=0;bottom=0;right=0;points=[[0,0.5],[1,0.5]];portConstraint=eastwest;" vertex="1" parent="mOBDqDTa86BtB7iNb8-j-1">
          <mxGeometry y="53" width="950" height="53" as="geometry" />
        </mxCell>
        <mxCell id="mOBDqDTa86BtB7iNb8-j-10" value="1" style="shape=partialRectangle;html=1;whiteSpace=wrap;connectable=0;overflow=hidden;fillColor=none;top=0;left=0;bottom=0;right=0;" vertex="1" parent="mOBDqDTa86BtB7iNb8-j-9">
          <mxGeometry width="113" height="53" as="geometry" />
        </mxCell>
        <mxCell id="mOBDqDTa86BtB7iNb8-j-11" style="shape=partialRectangle;html=1;whiteSpace=wrap;connectable=0;overflow=hidden;fillColor=none;top=0;left=0;bottom=0;right=0;" vertex="1" parent="mOBDqDTa86BtB7iNb8-j-9">
          <mxGeometry x="113" width="114" height="53" as="geometry" />
        </mxCell>
        <mxCell id="mOBDqDTa86BtB7iNb8-j-12" style="shape=partialRectangle;html=1;whiteSpace=wrap;connectable=0;overflow=hidden;fillColor=none;top=0;left=0;bottom=0;right=0;" vertex="1" parent="mOBDqDTa86BtB7iNb8-j-9">
          <mxGeometry x="227" width="113" height="53" as="geometry" />
        </mxCell>
        <mxCell id="mOBDqDTa86BtB7iNb8-j-13" style="shape=partialRectangle;html=1;whiteSpace=wrap;connectable=0;overflow=hidden;fillColor=none;top=0;left=0;bottom=0;right=0;" vertex="1" parent="mOBDqDTa86BtB7iNb8-j-9">
          <mxGeometry x="340" width="221" height="53" as="geometry" />
        </mxCell>
        <mxCell id="mOBDqDTa86BtB7iNb8-j-14" value="" style="shape=partialRectangle;html=1;whiteSpace=wrap;connectable=0;overflow=hidden;fillColor=none;top=0;left=0;bottom=0;right=0;" vertex="1" parent="mOBDqDTa86BtB7iNb8-j-9">
          <mxGeometry x="561" width="179" height="53" as="geometry" />
        </mxCell>
        <mxCell id="mOBDqDTa86BtB7iNb8-j-15" style="shape=partialRectangle;html=1;whiteSpace=wrap;connectable=0;overflow=hidden;fillColor=none;top=0;left=0;bottom=0;right=0;" vertex="1" parent="mOBDqDTa86BtB7iNb8-j-9">
          <mxGeometry x="740" width="210" height="53" as="geometry" />
        </mxCell>
        <mxCell id="mOBDqDTa86BtB7iNb8-j-16" style="shape=partialRectangle;collapsible=0;dropTarget=0;pointerEvents=0;fillColor=none;top=0;left=0;bottom=0;right=0;points=[[0,0.5],[1,0.5]];portConstraint=eastwest;" vertex="1" parent="mOBDqDTa86BtB7iNb8-j-1">
          <mxGeometry y="106" width="950" height="53" as="geometry" />
        </mxCell>
        <mxCell id="mOBDqDTa86BtB7iNb8-j-17" value="2" style="shape=partialRectangle;html=1;whiteSpace=wrap;connectable=0;overflow=hidden;fillColor=none;top=0;left=0;bottom=0;right=0;" vertex="1" parent="mOBDqDTa86BtB7iNb8-j-16">
          <mxGeometry width="113" height="53" as="geometry" />
        </mxCell>
        <mxCell id="mOBDqDTa86BtB7iNb8-j-18" style="shape=partialRectangle;html=1;whiteSpace=wrap;connectable=0;overflow=hidden;fillColor=none;top=0;left=0;bottom=0;right=0;" vertex="1" parent="mOBDqDTa86BtB7iNb8-j-16">
          <mxGeometry x="113" width="114" height="53" as="geometry" />
        </mxCell>
        <mxCell id="mOBDqDTa86BtB7iNb8-j-19" style="shape=partialRectangle;html=1;whiteSpace=wrap;connectable=0;overflow=hidden;fillColor=none;top=0;left=0;bottom=0;right=0;" vertex="1" parent="mOBDqDTa86BtB7iNb8-j-16">
          <mxGeometry x="227" width="113" height="53" as="geometry" />
        </mxCell>
        <mxCell id="mOBDqDTa86BtB7iNb8-j-20" style="shape=partialRectangle;html=1;whiteSpace=wrap;connectable=0;overflow=hidden;fillColor=none;top=0;left=0;bottom=0;right=0;" vertex="1" parent="mOBDqDTa86BtB7iNb8-j-16">
          <mxGeometry x="340" width="221" height="53" as="geometry" />
        </mxCell>
        <mxCell id="mOBDqDTa86BtB7iNb8-j-21" style="shape=partialRectangle;html=1;whiteSpace=wrap;connectable=0;overflow=hidden;fillColor=none;top=0;left=0;bottom=0;right=0;" vertex="1" parent="mOBDqDTa86BtB7iNb8-j-16">
          <mxGeometry x="561" width="179" height="53" as="geometry" />
        </mxCell>
        <mxCell id="mOBDqDTa86BtB7iNb8-j-22" style="shape=partialRectangle;html=1;whiteSpace=wrap;connectable=0;overflow=hidden;fillColor=none;top=0;left=0;bottom=0;right=0;" vertex="1" parent="mOBDqDTa86BtB7iNb8-j-16">
          <mxGeometry x="740" width="210" height="53" as="geometry" />
        </mxCell>
        <mxCell id="mOBDqDTa86BtB7iNb8-j-23" value="" style="shape=partialRectangle;collapsible=0;dropTarget=0;pointerEvents=0;fillColor=none;top=0;left=0;bottom=0;right=0;points=[[0,0.5],[1,0.5]];portConstraint=eastwest;" vertex="1" parent="mOBDqDTa86BtB7iNb8-j-1">
          <mxGeometry y="159" width="950" height="52" as="geometry" />
        </mxCell>
        <mxCell id="mOBDqDTa86BtB7iNb8-j-24" value="3" style="shape=partialRectangle;html=1;whiteSpace=wrap;connectable=0;overflow=hidden;fillColor=none;top=0;left=0;bottom=0;right=0;" vertex="1" parent="mOBDqDTa86BtB7iNb8-j-23">
          <mxGeometry width="113" height="52" as="geometry" />
        </mxCell>
        <mxCell id="mOBDqDTa86BtB7iNb8-j-25" value="" style="shape=partialRectangle;html=1;whiteSpace=wrap;connectable=0;overflow=hidden;fillColor=none;top=0;left=0;bottom=0;right=0;" vertex="1" parent="mOBDqDTa86BtB7iNb8-j-23">
          <mxGeometry x="113" width="114" height="52" as="geometry" />
        </mxCell>
        <mxCell id="mOBDqDTa86BtB7iNb8-j-26" value="" style="shape=partialRectangle;html=1;whiteSpace=wrap;connectable=0;overflow=hidden;fillColor=none;top=0;left=0;bottom=0;right=0;" vertex="1" parent="mOBDqDTa86BtB7iNb8-j-23">
          <mxGeometry x="227" width="113" height="52" as="geometry" />
        </mxCell>
        <mxCell id="mOBDqDTa86BtB7iNb8-j-27" value="" style="shape=partialRectangle;html=1;whiteSpace=wrap;connectable=0;overflow=hidden;fillColor=none;top=0;left=0;bottom=0;right=0;" vertex="1" parent="mOBDqDTa86BtB7iNb8-j-23">
          <mxGeometry x="340" width="221" height="52" as="geometry" />
        </mxCell>
        <mxCell id="mOBDqDTa86BtB7iNb8-j-28" value="" style="shape=partialRectangle;html=1;whiteSpace=wrap;connectable=0;overflow=hidden;fillColor=none;top=0;left=0;bottom=0;right=0;" vertex="1" parent="mOBDqDTa86BtB7iNb8-j-23">
          <mxGeometry x="561" width="179" height="52" as="geometry" />
        </mxCell>
        <mxCell id="mOBDqDTa86BtB7iNb8-j-29" value="" style="shape=partialRectangle;html=1;whiteSpace=wrap;connectable=0;overflow=hidden;fillColor=none;top=0;left=0;bottom=0;right=0;" vertex="1" parent="mOBDqDTa86BtB7iNb8-j-23">
          <mxGeometry x="740" width="210" height="52" as="geometry" />
        </mxCell>
        <mxCell id="mOBDqDTa86BtB7iNb8-j-30" value="" style="shape=partialRectangle;collapsible=0;dropTarget=0;pointerEvents=0;fillColor=none;top=0;left=0;bottom=0;right=0;points=[[0,0.5],[1,0.5]];portConstraint=eastwest;" vertex="1" parent="mOBDqDTa86BtB7iNb8-j-1">
          <mxGeometry y="211" width="950" height="53" as="geometry" />
        </mxCell>
        <mxCell id="mOBDqDTa86BtB7iNb8-j-31" value="4" style="shape=partialRectangle;html=1;whiteSpace=wrap;connectable=0;overflow=hidden;fillColor=none;top=0;left=0;bottom=0;right=0;" vertex="1" parent="mOBDqDTa86BtB7iNb8-j-30">
          <mxGeometry width="113" height="53" as="geometry" />
        </mxCell>
        <mxCell id="mOBDqDTa86BtB7iNb8-j-32" value="" style="shape=partialRectangle;html=1;whiteSpace=wrap;connectable=0;overflow=hidden;fillColor=none;top=0;left=0;bottom=0;right=0;" vertex="1" parent="mOBDqDTa86BtB7iNb8-j-30">
          <mxGeometry x="113" width="114" height="53" as="geometry" />
        </mxCell>
        <mxCell id="mOBDqDTa86BtB7iNb8-j-33" value="" style="shape=partialRectangle;html=1;whiteSpace=wrap;connectable=0;overflow=hidden;fillColor=none;top=0;left=0;bottom=0;right=0;" vertex="1" parent="mOBDqDTa86BtB7iNb8-j-30">
          <mxGeometry x="227" width="113" height="53" as="geometry" />
        </mxCell>
        <mxCell id="mOBDqDTa86BtB7iNb8-j-34" value="" style="shape=partialRectangle;html=1;whiteSpace=wrap;connectable=0;overflow=hidden;fillColor=none;top=0;left=0;bottom=0;right=0;" vertex="1" parent="mOBDqDTa86BtB7iNb8-j-30">
          <mxGeometry x="340" width="221" height="53" as="geometry" />
        </mxCell>
        <mxCell id="mOBDqDTa86BtB7iNb8-j-35" value="" style="shape=partialRectangle;html=1;whiteSpace=wrap;connectable=0;overflow=hidden;fillColor=none;top=0;left=0;bottom=0;right=0;" vertex="1" parent="mOBDqDTa86BtB7iNb8-j-30">
          <mxGeometry x="561" width="179" height="53" as="geometry" />
        </mxCell>
        <mxCell id="mOBDqDTa86BtB7iNb8-j-36" value="" style="shape=partialRectangle;html=1;whiteSpace=wrap;connectable=0;overflow=hidden;fillColor=none;top=0;left=0;bottom=0;right=0;" vertex="1" parent="mOBDqDTa86BtB7iNb8-j-30">
          <mxGeometry x="740" width="210" height="53" as="geometry" />
        </mxCell>
        <mxCell id="mOBDqDTa86BtB7iNb8-j-37" value="" style="shape=partialRectangle;collapsible=0;dropTarget=0;pointerEvents=0;fillColor=none;top=0;left=0;bottom=0;right=0;points=[[0,0.5],[1,0.5]];portConstraint=eastwest;" vertex="1" parent="mOBDqDTa86BtB7iNb8-j-1">
          <mxGeometry y="264" width="950" height="53" as="geometry" />
        </mxCell>
        <mxCell id="mOBDqDTa86BtB7iNb8-j-38" value="5" style="shape=partialRectangle;html=1;whiteSpace=wrap;connectable=0;overflow=hidden;fillColor=none;top=0;left=0;bottom=0;right=0;" vertex="1" parent="mOBDqDTa86BtB7iNb8-j-37">
          <mxGeometry width="113" height="53" as="geometry" />
        </mxCell>
        <mxCell id="mOBDqDTa86BtB7iNb8-j-39" value="" style="shape=partialRectangle;html=1;whiteSpace=wrap;connectable=0;overflow=hidden;fillColor=none;top=0;left=0;bottom=0;right=0;" vertex="1" parent="mOBDqDTa86BtB7iNb8-j-37">
          <mxGeometry x="113" width="114" height="53" as="geometry" />
        </mxCell>
        <mxCell id="mOBDqDTa86BtB7iNb8-j-40" value="" style="shape=partialRectangle;html=1;whiteSpace=wrap;connectable=0;overflow=hidden;fillColor=none;top=0;left=0;bottom=0;right=0;" vertex="1" parent="mOBDqDTa86BtB7iNb8-j-37">
          <mxGeometry x="227" width="113" height="53" as="geometry" />
        </mxCell>
        <mxCell id="mOBDqDTa86BtB7iNb8-j-41" value="" style="shape=partialRectangle;html=1;whiteSpace=wrap;connectable=0;overflow=hidden;fillColor=none;top=0;left=0;bottom=0;right=0;" vertex="1" parent="mOBDqDTa86BtB7iNb8-j-37">
          <mxGeometry x="340" width="221" height="53" as="geometry" />
        </mxCell>
        <mxCell id="mOBDqDTa86BtB7iNb8-j-42" value="" style="shape=partialRectangle;html=1;whiteSpace=wrap;connectable=0;overflow=hidden;fillColor=none;top=0;left=0;bottom=0;right=0;" vertex="1" parent="mOBDqDTa86BtB7iNb8-j-37">
          <mxGeometry x="561" width="179" height="53" as="geometry" />
        </mxCell>
        <mxCell id="mOBDqDTa86BtB7iNb8-j-43" value="" style="shape=partialRectangle;html=1;whiteSpace=wrap;connectable=0;overflow=hidden;fillColor=none;top=0;left=0;bottom=0;right=0;" vertex="1" parent="mOBDqDTa86BtB7iNb8-j-37">
          <mxGeometry x="740" width="210" height="53" as="geometry" />
        </mxCell>
        <mxCell id="mOBDqDTa86BtB7iNb8-j-44" value="" style="shape=partialRectangle;collapsible=0;dropTarget=0;pointerEvents=0;fillColor=none;top=0;left=0;bottom=0;right=0;points=[[0,0.5],[1,0.5]];portConstraint=eastwest;" vertex="1" parent="mOBDqDTa86BtB7iNb8-j-1">
          <mxGeometry y="317" width="950" height="53" as="geometry" />
        </mxCell>
        <mxCell id="mOBDqDTa86BtB7iNb8-j-45" value="6" style="shape=partialRectangle;html=1;whiteSpace=wrap;connectable=0;overflow=hidden;fillColor=none;top=0;left=0;bottom=0;right=0;" vertex="1" parent="mOBDqDTa86BtB7iNb8-j-44">
          <mxGeometry width="113" height="53" as="geometry" />
        </mxCell>
        <mxCell id="mOBDqDTa86BtB7iNb8-j-46" value="" style="shape=partialRectangle;html=1;whiteSpace=wrap;connectable=0;overflow=hidden;fillColor=none;top=0;left=0;bottom=0;right=0;" vertex="1" parent="mOBDqDTa86BtB7iNb8-j-44">
          <mxGeometry x="113" width="114" height="53" as="geometry" />
        </mxCell>
        <mxCell id="mOBDqDTa86BtB7iNb8-j-47" value="" style="shape=partialRectangle;html=1;whiteSpace=wrap;connectable=0;overflow=hidden;fillColor=none;top=0;left=0;bottom=0;right=0;" vertex="1" parent="mOBDqDTa86BtB7iNb8-j-44">
          <mxGeometry x="227" width="113" height="53" as="geometry" />
        </mxCell>
        <mxCell id="mOBDqDTa86BtB7iNb8-j-48" value="" style="shape=partialRectangle;html=1;whiteSpace=wrap;connectable=0;overflow=hidden;fillColor=none;top=0;left=0;bottom=0;right=0;" vertex="1" parent="mOBDqDTa86BtB7iNb8-j-44">
          <mxGeometry x="340" width="221" height="53" as="geometry" />
        </mxCell>
        <mxCell id="mOBDqDTa86BtB7iNb8-j-49" value="" style="shape=partialRectangle;html=1;whiteSpace=wrap;connectable=0;overflow=hidden;fillColor=none;top=0;left=0;bottom=0;right=0;" vertex="1" parent="mOBDqDTa86BtB7iNb8-j-44">
          <mxGeometry x="561" width="179" height="53" as="geometry" />
        </mxCell>
        <mxCell id="mOBDqDTa86BtB7iNb8-j-50" value="" style="shape=partialRectangle;html=1;whiteSpace=wrap;connectable=0;overflow=hidden;fillColor=none;top=0;left=0;bottom=0;right=0;" vertex="1" parent="mOBDqDTa86BtB7iNb8-j-44">
          <mxGeometry x="740" width="210" height="53" as="geometry" />
        </mxCell>
      </root>
    </mxGraphModel>
  </diagram>
</mxfile>
